<svg id="Layer_1" data-name="Layer 1" xmlns="http://www.w3.org/2000/svg" xmlns:xlink="http://www.w3.org/1999/xlink" viewBox="0 0 500 102"><defs><style>.cls-1{fill:none;}.cls-2{clip-path:url(#clip-path);}.cls-3{fill:#fff;}</style><clipPath id="clip-path"><rect class="cls-1" width="499.92" height="101.71"/></clipPath></defs><g id="J_PREP-w_rgb" data-name="J PREP-w,rgb"><g class="cls-2"><g class="cls-2"><path class="cls-3" d="M47.44,13.76a5.73,5.73,0,0,1,2.79,1.39A4,4,0,0,1,51,17.78L50.85,62c0,3.2-.08,5.64-.63,7.18a6.71,6.71,0,0,1-3.06,3.5c-1.93,1.16-4.23,1.76-9.23,1.75A37.71,37.71,0,0,1,28.24,73a28,28,0,0,1-8.06-3.32c-1.9-1.32-2.84-2.73-2.84-4.27q0-.45.06-1.11l-1.68-.62L8.5,85.26l1.68.68a4.7,4.7,0,0,1,3.41-1.55,29.43,29.43,0,0,1,7.15,1.48C26.14,87.49,30,88.51,32.41,89a53.53,53.53,0,0,0,8.91.82,39.47,39.47,0,0,0,15.47-2.93,20.86,20.86,0,0,0,9.64-8q3.09-4.91,3.13-16l.15-45a3.83,3.83,0,0,1,.79-2.63,5.74,5.74,0,0,1,2.8-1.45V12H47.44Z"/><path class="cls-3" d="M201.15,17.08a23.05,23.05,0,0,0-8.63-3.9A62.42,62.42,0,0,0,179.3,12l-50,0v1.79a5.74,5.74,0,0,1,2.79,1.35,3.87,3.87,0,0,1,.77,2.64l-.21,64.9a3.85,3.85,0,0,1-.79,2.57,5.83,5.83,0,0,1-2.8,1.52v1.79H155V86.76a5.38,5.38,0,0,1-2.75-1.45,3.8,3.8,0,0,1-.81-2.6l.08-24.36,27.66.09q10.57,0,16.47-2a19.3,19.3,0,0,0,9.5-7c2.77-3.87,4.17-9.41,4.19-14.56a24.49,24.49,0,0,0-2.15-10.19,19.32,19.32,0,0,0-6-7.52M186.64,42.53c-2.13,1.21-6.43,1.26-10.78,1.26l-24.41-.08.07-17.13,24.41.08c4.47,0,8.69.06,10.8,1.32s3.54,4.1,3.54,7.14c0,3.42-1.39,6.14-3.63,7.41"/><path class="cls-3" d="M488.24,24.7a19.32,19.32,0,0,0-6-7.52,23,23,0,0,0-8.62-3.9,62.59,62.59,0,0,0-13.23-1.16l-50-.15v1.79a5.69,5.69,0,0,1,2.79,1.46,3.93,3.93,0,0,1,.78,2.64l-.22,64.8a3.75,3.75,0,0,1-.79,2.57,5.73,5.73,0,0,1-2.8,1.53v1.78h25.93V86.76a5.41,5.41,0,0,1-2.76-1.45,3.75,3.75,0,0,1-.8-2.6l.08-24.26,27.65.09q10.57,0,16.47-2a19.33,19.33,0,0,0,9.51-7c2.76-3.87,4.17-9.41,4.18-14.56a24.34,24.34,0,0,0-2.15-10.19M467.72,42.63c-2.13,1.21-6.42,1.26-10.77,1.26l-24.42-.08.07-17.13,24.41.08c4.47,0,8.69.06,10.8,1.32s3.54,4.1,3.54,7.14c0,3.42-1.38,6.14-3.63,7.41"/><path class="cls-3" d="M296.74,77.8,283.25,58.49C295.64,56.3,302.89,47.28,302.89,35a26.45,26.45,0,0,0-2.09-10.31,17.78,17.78,0,0,0-6.51-7.92,24.47,24.47,0,0,0-8.91-3.55,91,91,0,0,0-15.16-1.06L221.13,12v1.79a5.78,5.78,0,0,1,2.79,1.46,4,4,0,0,1,.78,2.64l-.22,64.71a4,4,0,0,1-.79,2.65,5.75,5.75,0,0,1-2.8,1.52v1.8h25.91V86.76A5.41,5.41,0,0,1,244,85.31a4,4,0,0,1-.8-2.67l.08-24.15h19.14l14.62,21.26c1.73,2.58,2.6,4.31,2.6,5,0,1-1,1.71-2.86,2v1.79h30.08V86.75A7.28,7.28,0,0,1,302.46,85a47.23,47.23,0,0,1-5.72-7.17m-16-35.28c-2,1.2-8.59,1.45-12.39,1.44l-25-.08.07-17.17,25,.09c3.88,0,10.25-.13,12.43,1.17s3.5,4,3.5,7.23-1.44,6-3.6,7.32"/><path class="cls-3" d="M391.15,73.17a3.8,3.8,0,0,1-2.57.78l-47.88-.16.07-18,30.88.1a3.69,3.69,0,0,1,2.57.82,5.86,5.86,0,0,1,1.45,2.77h1.78l.07-21.35h-1.79A5.65,5.65,0,0,1,374.27,41a3.82,3.82,0,0,1-2.58.78l-30.88-.1.06-15,47.66.15a3.8,3.8,0,0,1,2.57.81,5.83,5.83,0,0,1,1.44,2.79h1.79l.07-21.89h-1.79a5.84,5.84,0,0,1-1.47,2.78,3.63,3.63,0,0,1-2.57.79L318.67,12v1.79a5.66,5.66,0,0,1,2.79,1.3,3.79,3.79,0,0,1,.78,2.63L322,82.37a3.86,3.86,0,0,1-.8,2.63,5.78,5.78,0,0,1-2.8,1.76v1.78l70.12-.05a3.8,3.8,0,0,1,2.56.79,5.66,5.66,0,0,1,1.45,2.8h1.79l.07-21.71h-1.79a5.65,5.65,0,0,1-1.47,2.79"/></g></g></g></svg>