<svg id="Layer_1" data-name="Layer 1" xmlns="http://www.w3.org/2000/svg" viewBox="0 0 500 155"><defs><style>.cls-1{fill:#fff;}</style></defs><g id="Kids-w_cmyk" data-name="Kids-w,cmyk"><path class="cls-1" d="M40.4,5.45A5.92,5.92,0,0,1,43.23,6.9a13.67,13.67,0,0,1,1.32,2.73l-.14,46.28c0,3.22-.09,5.67-.64,7.23a6.74,6.74,0,0,1-3.08,3.52c-1.94,1.16-4.25,1.77-9.28,1.76A37.82,37.82,0,0,1,21.65,67a28.1,28.1,0,0,1-8.11-3.34c-1.91-1.33-2.86-2.75-2.86-4.29,0-.31,0-.68.06-1.13l-1.68-.62L1.79,79.36,3.48,80a4.7,4.7,0,0,1,3.43-1.56A30,30,0,0,1,14.11,80q8.15,2.44,11.74,3.11a55.32,55.32,0,0,0,9,.83,39.71,39.71,0,0,0,15.56-3,20.94,20.94,0,0,0,9.7-8Q63.19,68,63.23,56.8L63.4,9.2a3.81,3.81,0,0,1,.88-2.73A6.42,6.42,0,0,1,67.38,5V3.11h-27Z"/><path class="cls-1" d="M199.84,8.9a23.74,23.74,0,0,0-9-4,44.75,44.75,0,0,0-13.72-.71H125.5V5.46a6.25,6.25,0,0,1,2.66,1.41c.54.62.45,2.73.45,2.73l-.23,67.31a3.79,3.79,0,0,1-.87,2.67,6.34,6.34,0,0,1-3.05,1.58V83h28V81.21c-1.9-.36-2.86-.87-3.41-1.5a3.46,3.46,0,0,1-.74-2.7V51.89H177s13-.75,17.09-2.2a20,20,0,0,0,9.86-7.3c2.87-4,4.33-9.76,4.34-15.11a25.18,25.18,0,0,0-2.23-10.58A20,20,0,0,0,199.84,8.9ZM184.4,35c-2.19,1.24-6.59,1.29-11.05,1.29l-25-.09.06-17.55,25,.08c4.58,0,8.91.06,11.07,1.35s3.63,4.2,3.63,7.32C188.12,30.93,186.7,33.73,184.4,35Z"/><path class="cls-1" d="M497.76,16.81A19.85,19.85,0,0,0,491.53,9a23.76,23.76,0,0,0-8.95-4,48.35,48.35,0,0,0-13.72-.81H417.1v1.3A6.27,6.27,0,0,1,419.85,7a16,16,0,0,1,1.4,2.74L421,76.91a3.83,3.83,0,0,1-.86,2.67,6.39,6.39,0,0,1-3,1.58V83h27V81.21a5.75,5.75,0,0,1-3.33-1.5,3.86,3.86,0,0,1-.82-2.7V51.89H468.7s13-.65,17.09-2.09a20,20,0,0,0,9.86-7.31c2.87-4,4.33-9.76,4.35-15.11A25.3,25.3,0,0,0,497.76,16.81ZM476,35c-2.19,1.24-6.59,1.29-11.05,1.29l-25-.09L440,18.68l25,.09c4.58,0,8.91.05,11.07,1.34s3.63,4.2,3.63,7.32C479.72,30.93,478.3,33.73,476,35Z"/><path class="cls-1" d="M299,71.92,285.52,52c12.4-2.26,19.66-11.57,19.66-24.27a27.88,27.88,0,0,0-2.1-10.64,18.19,18.19,0,0,0-6.51-8.17,24.14,24.14,0,0,0-8.92-3.67,88.52,88.52,0,0,0-15.17-1.09H219.93V5.47c2,.38,3,.89,3.54,1.51s.61,2.74.61,2.74l-.23,67.11a4.15,4.15,0,0,1-.87,2.75,6.39,6.39,0,0,1-3,1.58V83h28V81.21c-2.09-.36-3-.87-3.6-1.5s-.55-2.78-.55-2.78l.08-25H264L279.35,74c1.82,2.67,2.74,4.47,2.73,5.17,0,1.09-1,1.78-3,2.09V83h30.1V81.17a7.17,7.17,0,0,1-4.44-1.85A48.31,48.31,0,0,1,299,71.92ZM282.09,34.85c-2,1.23-8.79,1.48-12.68,1.47l-25.61-.09.06-17.55,25.62.09c4,0,10.48-.13,12.71,1.19s3.58,4.12,3.58,7.4S284.3,33.52,282.09,34.85Z"/><path class="cls-1" d="M397,67.11a13,13,0,0,1-2.66,1.38H344.46l.07-19.72,32.26.12a3.69,3.69,0,0,1,2.69.92A6.76,6.76,0,0,1,381,52.92h1.86V30.09H381c-.39,2.09-.91,3.05-1.53,3.59a2.94,2.94,0,0,1-2.67.56H344.46l.06-15.56,49.46.17a3.79,3.79,0,0,1,2.66.89,6.71,6.71,0,0,1,1.5,3.09h2.35L400.56,0h-2A12.16,12.16,0,0,1,397,2.88a8.52,8.52,0,0,1-2.67,1.27H321.63V5.47c1.55.4,2.53.73,3.06,1.35a10.28,10.28,0,0,1,1.09,2.74l-.24,67a4.16,4.16,0,0,1-.87,2.86,6.26,6.26,0,0,1-3,1.92V83H394.3a3.88,3.88,0,0,1,2.67.8,5.88,5.88,0,0,1,1.5,3.35h2V64.34h-1.95A5.91,5.91,0,0,1,397,67.11Z"/><polygon class="cls-1" points="181.33 103.77 171.58 103.77 155.59 121.66 155.59 103.77 148.33 103.77 148.33 144.24 155.59 144.24 155.59 132.88 164.16 123.53 175.85 144.24 184.13 144.24 169.31 117.7 181.33 103.77"/><path class="cls-1" d="M349.27,119.4a32.5,32.5,0,0,1-8.37-1.66c-1.63-.68-2.4-1.64-2.32-2.84-.08-1.3.79-2.22,2.6-2.73a19.66,19.66,0,0,1,5.76-.73,24.28,24.28,0,0,1,12.36,3.1l4.18-6.09a31,31,0,0,0-16-4.72,22.71,22.71,0,0,0-11.69,3.09,9.35,9.35,0,0,0-4.9,8.08,9.79,9.79,0,0,0,3.35,7.8c2.27,2,6.75,3.37,13.49,4.09a24.35,24.35,0,0,1,8.41,2c1.79.91,2.62,2.13,2.52,3.6a4.1,4.1,0,0,1-2.6,3.58c-1.69.87-4.31,1.38-7.85,1.5a26.46,26.46,0,0,1-15.28-4.6l-4.36,6.21a33.07,33.07,0,0,0,19.86,6c5.59,0,9.88-1.14,12.93-3.4a11.11,11.11,0,0,0,4.64-9.25,12,12,0,0,0-3.71-8.37C359.8,121.52,355.47,119.94,349.27,119.4Z"/><rect class="cls-1" x="217.85" y="103.77" width="7.26" height="40.47"/><path class="cls-1" d="M280.22,103.77H262.48v40.47h17.74a20.24,20.24,0,1,0,0-40.47Zm8.3,29.55a11.89,11.89,0,0,1-8.8,3.66h-10V112.07h10a12.39,12.39,0,0,1,12.41,12.39A12.11,12.11,0,0,1,288.52,133.32Z"/></g></svg>